<?xml version="1.0" encoding="utf-8"?>
<!-- Generator: Adobe Illustrator 23.0.6, SVG Export Plug-In . SVG Version: 6.00 Build 0)  -->
<svg version="1.1" id="Layer_2_xA0_Image_1_" xmlns="http://www.w3.org/2000/svg" xmlns:xlink="http://www.w3.org/1999/xlink"
	 x="0px" y="0px" viewBox="0 0 269.76 258.24" style="enable-background:new 0 0 269.76 258.24;" xml:space="preserve">
<g>
	<path d="M43.43,45.61c1.08-0.22,3.24-0.82,8.31,1.41c9.17,4.32,11.59,6.23,18.15,10.08c24.31,15.39,41.98,33.2,59.52,55.81
		c3.4,4.38,6.57,8.95,9.68,13.55c0.63,0.93,1.01,2.59,0.61,3.55c-1.32,3.19-3.04,6.22-5.06,10.2c-3.68-4.61-6.63-9.68-10.08-13.48
		c-10.25-12.56-12.93-15.88-31.69-33.92C78.06,79.73,67.82,72.17,47.01,59.29c-1.4-0.86-4.03-2.31-6.88-3.9
		c-1.54-0.86-2.7-2.57-3.22-4.01C38.54,49.55,41.89,45.88,43.43,45.61z"/>
	<path d="M229.09,31.05c0.34,6.14,1.35,10.54-4.51,15.84c-14.25,11.81-27.52,24.72-37.96,40.23
		c-22.43,33.33-40.51,68.79-51.78,107.45c-3.94,13.52-6.67,27.39-10.01,41.33c-3.18,0-6.76,0-10.59,0
		c0.53-16.23,3.26-31.74,8.73-46.54c8.29-22.44,16.68-44.9,26.33-66.77c5.48-12.42,13.3-23.84,20.54-35.42
		c4.54-7.25,9.62-14.24,15.07-20.84c11-13.32,23.62-24.92,38.71-33.57C225.04,31.94,226.82,31.73,229.09,31.05z"/>
	<path d="M227.83,52.66c-0.22,1.43-0.81,4.17-2.46,6.07c-9.81,11.31-20.98,21.64-29.45,33.85c-10.4,14.97-19.37,31.09-27.54,47.41
		c-8.3,16.59-15.83,36.68-22.1,54.14c-4.58,12.73-8.6,27.95-9.75,36.63c-0.23,1.71-0.44,3.17-0.77,5.14c-3.76,0.23-5.26,0-6.78,0
		c3.7-47.59,53.69-153.03,98.71-185.16C227.74,51.17,227.9,52.03,227.83,52.66z"/>
	<path d="M141.97,125.25c-12.31-17.87-24.81-34.01-40.75-48.83C86.9,62.32,67.87,50.89,58.81,46.37
		c-5.38-2.68-11.27-4.46-12.83-6.42c1.99-1.11,2.6-3.31,5.26-2.72c8.67,1.92,30.26,16.3,43.46,27.41
		c16.39,13.8,30.91,29.39,43.27,46.94c1.65,2.34,3.57,4.56,4.77,7.12c0.74,1.59,0.63,2.02,0.07,4.48
		C142.55,123.87,142.21,124.79,141.97,125.25z"/>
	<path d="M138.62,235.82c16.3-61.53,38.07-116.88,87.46-169.8c0.32,0.18,0.29,1.22-0.38,2.57c-0.78,1.16-2.65,4.64-5.45,8.06
		c-4.39,5.32-17.02,20.14-28.94,38.91c-14.47,22.79-23.29,41.69-31.65,62.33c-6.47,17.15-9.02,25.48-13.52,41.36
		c-1.84,7.13-3.08,11.01-4.12,15.78c-0.1,0.48-0.92,0.8-1.6,0.86C140.01,235.88,138.98,235.95,138.62,235.82z"/>
	<path d="M145.87,116.87c0.13-2.99-0.91-4.21-3.18-7.83c-1.46-2.33-4.47-5.95-6.07-8.39c-2.15-3.27-3.08-4.29-5.66-7.51
		c-1.15-1.44-5.17-6.59-6.42-7.98c-3.96-4.41-3.51-3.97-8.8-9.39c-3.22-3.3-5.43-5.32-7.29-7.13c-1.27-1.23-2.57-2.36-4.03-3.59
		c-1.86-1.56-4.17-3.46-6.19-5.08c-1.31-1.06-1.66-1.55-5.36-4.25c-2.68-1.95-4.48-2.99-7.73-5.29c-1.2-0.85-3.4-2.22-5.5-3.57
		c-3.22-2.07-12.26-7.08-15.71-8.93c-1.23-0.66-1.04-0.69-4.54-2.18c-1.76-0.76-1.91-0.88-3.84-1.46c-0.97-0.29-2.2-0.72-3.51,0.07
		c-0.59,0.36-1.13,0.5,1.57,1.34c2.93,0.91,5.58,2.22,8.4,3.79c1.73,0.96,2.73,1.45,5.22,2.8c2.49,1.35,5.92,3.35,7.82,4.63
		c3.67,2.47,5.79,3.89,9.41,6.18c3.23,2.04,6.3,4.58,10.69,7.83c2.24,1.66,4.68,3.79,6.78,5.69c2.57,2.33,5.18,4.81,8.04,7.55
		c7.62,7.29,10.3,10.51,18.35,20.06C135.4,102.56,143.6,116.76,145.87,116.87z"/>
</g>
</svg>
